<svg width="50" height="42" viewBox="0 0 50 42" fill="none" xmlns="http://www.w3.org/2000/svg">
<path d="M36.3815 41.9805H36.45C37.737 41.9805 38.9533 41.5515 39.8747 40.7719L46.4855 35.1781C46.7122 34.9867 46.8918 34.7593 47.0143 34.509C47.1369 34.2591 47.2001 33.9908 47.2001 33.7197C47.2001 33.4489 47.1369 33.1806 47.0143 32.9304C46.8918 32.6802 46.7122 32.453 46.4855 32.2616L36.7352 24.011C36.5088 23.8195 36.2402 23.6672 35.9445 23.5635C35.6488 23.4598 35.3317 23.4064 35.0117 23.4064C34.6917 23.4064 34.3746 23.4598 34.0789 23.5635C33.7831 23.6672 33.5146 23.8195 33.2882 24.011L29.4028 27.299C27.6015 26.8451 24.2399 25.8139 22.1094 24.011C19.979 22.2084 18.7602 19.3641 18.2239 17.8398L22.1094 14.552C22.336 14.3606 22.5157 14.1333 22.6384 13.8831C22.761 13.6329 22.8242 13.3646 22.8242 13.0937C22.8242 12.8229 22.761 12.5546 22.6384 12.3044C22.5157 12.0542 22.336 11.8269 22.1094 11.6355L12.3591 3.38504C11.8931 3.01286 11.2765 2.80554 10.6357 2.80554C9.99485 2.80554 9.3783 3.01286 8.9123 3.38504L2.30395 8.97883C1.37765 9.76263 0.856018 10.8393 0.875528 11.9387C0.931574 14.8758 1.85056 25.0776 11.3523 33.1175C20.8541 41.1575 32.9106 41.9332 36.3815 41.9805ZM10.6381 7.75983L16.9418 13.0937L13.7899 15.7607C13.5031 16.0027 13.2924 16.3016 13.177 16.6302C13.0616 16.9587 13.0453 17.3065 13.1293 17.6418C13.1878 17.879 14.6187 23.5036 18.6651 26.9277C22.7116 30.3516 29.3589 31.5624 29.6391 31.6119C30.0355 31.6834 30.4464 31.6696 30.8349 31.5721C31.2234 31.4743 31.5764 31.2958 31.8622 31.0528L35.014 28.3858L41.3177 33.7197L36.428 37.8554C33.3859 37.8121 22.9772 37.121 14.7991 30.1989C6.59414 23.2561 5.79947 14.4179 5.75071 11.8954L10.6381 7.75983ZM44.75 19.2919H49.625C49.625 8.7107 40.1842 0.730469 27.6623 0.730469V4.85569C37.5639 4.85569 44.75 10.9259 44.75 19.2919Z" fill="#E1E3E6"/>
</svg>
