<svg width="178" height="178" viewBox="0 0 178 178" fill="none" xmlns="http://www.w3.org/2000/svg">
<mask id="mask0_148_1721" style="mask-type:alpha" maskUnits="userSpaceOnUse" x="0" y="0" width="178" height="178">
<circle cx="89.0731" cy="88.9155" r="88.7456" fill="#2FE52F"/>
</mask>
<g mask="url(#mask0_148_1721)">
<circle cx="89.0731" cy="88.9155" r="88.7456" fill="#2FE52F"/>
<path d="M137.627 135.566C137.129 134.888 132.819 131.886 130.742 129.598C128.666 127.31 126.203 124.198 120.935 122.165C114.597 119.951 103.327 117.825 103.327 117.825L106.355 106.379H108.228C117.211 106.379 125.295 102.312 125.295 94.3375C125.295 91.7763 125.07 90.315 125.07 90.315C125.07 90.315 135.983 82.0855 135.983 68.1344C135.983 56.4808 122.787 48.5193 122.787 41.7904C122.787 40.1136 124.215 38.4632 127.066 38.1859L132.307 37.5214C133.555 37.363 133.634 35.585 132.404 35.3209L127.393 34.2295C126.762 34.093 126.167 33.8202 125.647 33.4329L125.136 33.05C123.964 32.1346 123.17 31.2324 120.041 31.2324C116.889 31.2324 113.932 33.2172 113.932 39.5766C113.932 50.117 126.82 56.6743 126.82 66.3785C126.82 70.0973 123.977 74.1504 118.039 74.1504C110.767 74.1504 104.918 65.1549 89.3498 65.1549C84.131 65.1549 79.1858 66.1673 75.1437 68.2621C67.589 64.6048 43.1087 70.797 43.1087 91.9346C43.1087 95.4157 44.325 98.4657 47.1768 98.4657C48.2082 98.4657 49.3806 97.9199 49.7906 97.7131C50.2976 97.458 51.8095 96.6964 51.8095 96.6964C51.8095 96.6964 53.6871 99.2492 56.9532 99.2492C63.7015 99.2492 67.1219 93.7435 67.1219 93.7435L71.8293 97.4094L62.5464 103.848C61.7707 104.385 61.1845 105.151 60.8673 106.044L52.8143 128.044C52.4748 128.982 52.0429 129.18 51.3334 129.435C50.3681 129.774 45.9163 130.967 47.0711 134.694C44.0035 133.642 41.9231 138.637 41.1517 141.076C40.376 143.514 40.0674 147.083 40.389 147.985C40.389 147.985 41.0679 149.49 42.3417 149.046C42.5093 148.989 42.6502 148.883 42.7826 148.764C44.5368 147.228 44.982 146.753 48.182 143.879C53.2066 139.359 58.1478 137.507 61.903 128.859C65.3015 121.029 69.3961 112.206 69.3961 112.206C70 111.013 71.1018 110.155 72.4022 109.851L94.282 104.803L93.2374 121.359C93.1183 123.225 94.4144 124.885 96.2521 125.223L117.211 128.854C118.666 133.101 120.772 134.008 123.135 132.48C122.901 133.739 122.954 134.949 125.387 136.292C127.82 137.634 130.403 138.008 132.475 138.18C133.687 138.281 134.674 138.272 135.459 138.171C136.402 138.048 137.403 137.647 137.782 136.776C137.927 136.419 137.949 136.001 137.627 135.566Z" fill="black"/>
<path d="M80.2305 71.4473L54.6304 84.254L56.4684 91.1019L75.6507 81.4461L70.3704 89.2755L76.4178 93.9714L89.7994 85.8294C88.248 88.0476 84.9599 93.1792 89.4646 97.3819C96.42 103.869 110.714 92.6906 117.718 86.8417L114.227 82.036C106.835 87.9199 96.9091 93.6897 94.9787 91.9689C93.0612 90.2612 98.5929 84.0558 102.159 80.0556L102.216 79.9937L96.1952 73.9998L80.6711 83.9064L85.577 76.8296L80.2305 71.4473Z" fill="#FFE033"/>
</g>
</svg>
