<svg width="178" height="178" viewBox="0 0 178 178" fill="none" xmlns="http://www.w3.org/2000/svg">
<mask id="mask0_148_1722" style="mask-type:luminance" maskUnits="userSpaceOnUse" x="0" y="0" width="178" height="178">
<path d="M88.8302 177.661C137.843 177.661 177.576 137.928 177.576 88.9155C177.576 39.9027 137.843 0.169922 88.8302 0.169922C39.8173 0.169922 0.0845642 39.9027 0.0845642 88.9155C0.0845642 137.928 39.8173 177.661 88.8302 177.661Z" fill="white"/>
</mask>
<g mask="url(#mask0_148_1722)">
<path d="M0.0845642 0.169922H177.576V177.661H0.0845642V0.169922Z" fill="#FFE033"/>
<path d="M103.917 136.218C121.342 126.172 134.477 110.084 140.835 91.002L160.537 97.791C152.583 121.654 136.167 141.779 114.389 154.366C75.6071 176.686 29.4594 170.252 0.0845642 142.874V109.15L1.41575 111.635C20.8067 145.137 66.0669 158.094 103.917 136.218Z" fill="black"/>
<path d="M0.0845642 47.427C5.70593 36.7721 14.2287 27.9263 24.6671 21.9126C54.0863 4.91781 88.4308 15.4785 102.674 40.1498C116.031 63.3124 108.62 92.5985 86.2122 105.555C65.7119 117.403 42.2831 110.214 32.6542 93.5747C24.0903 78.7098 28.8381 60.4282 42.4162 52.6186C54.3969 45.6964 66.8213 50.1337 71.4804 58.1652C75.474 65.1761 73.0335 72.187 68.4631 74.8494C66.8656 75.7368 66.0669 75.7368 65.1795 75.7368C65.4992 73.6673 65.1858 71.5495 64.2802 69.6613C63.3747 67.7732 61.9194 66.2029 60.1054 65.1568C58.2913 64.1106 56.2034 63.6373 54.1156 63.7992C52.0278 63.961 50.0377 64.7503 48.4066 66.0635C46.8773 67.3326 45.6412 68.9178 44.7833 70.7103C43.9254 72.5027 43.466 74.4598 43.4368 76.4468C43.3481 79.686 44.1911 83.014 45.9217 85.9869C52.7551 97.7901 68.1968 99.0769 78.8907 92.9091C94.5543 83.857 98.4147 63.4012 89.4514 47.8263C78.4026 28.746 52.7995 22.5338 31.9886 34.5145C7.80543 48.5363 0.750156 79.8191 14.6832 104.002C30.4799 131.336 66.9988 140.699 96.6398 123.615C129.431 104.668 139.548 62.4693 120.645 29.7666C113.128 16.8215 101.823 6.49201 88.2533 0.169922L21.2948 0.169922C13.569 3.71102 6.4191 8.39285 0.0845642 14.0586L0.0845642 47.427Z" fill="black"/>
</g>
</svg>
